<svg width="9" height="13" viewBox="0 0 9 13" fill="none" xmlns="http://www.w3.org/2000/svg">
<path d="M0.0157562 3.32227C-0.0335586 2.62907 0.121422 1.94623 0.531774 1.39702C0.887529 0.899131 1.35072 0.627217 1.90901 0.468311C2.37924 0.329901 2.68745 0.499493 2.82306 1.01816C3.01679 1.79358 3.2933 2.56905 3.39369 3.38551C3.42539 3.74495 3.19115 4.25317 2.93754 4.51491C2.30176 5.1359 2.43385 5.58781 2.91642 6.52769C3.06612 6.8307 3.30388 7.35455 3.76707 8.04795C4.24963 8.7465 4.505 9.12145 5.12493 8.8034C5.81355 8.45971 6.31549 8.68074 6.83503 9.23553C7.18727 9.6362 7.57473 9.98041 7.92696 10.3811C8.43594 10.9769 8.41305 11.3877 8.01503 11.8086C7.29823 12.5835 6.11472 12.8397 5.23414 12.3207C4.74805 12.038 4.26373 11.6681 3.87803 11.2366C2.17849 9.31545 0.952711 7.08128 0.214772 4.55982C0.0967725 4.13358 0.0421749 3.70225 0.0157562 3.32227Z" fill="white"/>
</svg>
