<svg width="91" height="37" viewBox="0 0 91 37" fill="none" xmlns="http://www.w3.org/2000/svg">
<rect x="0.5" y="0.5" width="90" height="35.7071" stroke="white"/>
<path d="M21.4925 14.385L24.5405 21.861L27.5765 14.385H28.4525L24.9005 22.905H24.1685L20.6165 14.385H21.4925ZM38.0371 22.161V22.905H32.3131V14.385H37.9291V15.129H33.1531V18.201H37.3171V18.909H33.1531V22.161H38.0371ZM42.2656 22.905V14.385H43.1056V22.161H48.0256V22.905H42.2656ZM57.6257 22.161V22.905H51.9017V14.385H57.5177V15.129H52.7417V18.201H56.9057V18.909H52.7417V22.161H57.6257ZM66.6584 15.981C66.4184 15.709 66.0984 15.489 65.6984 15.321C65.2984 15.153 64.8424 15.069 64.3304 15.069C63.5784 15.069 63.0304 15.213 62.6864 15.501C62.3424 15.781 62.1704 16.165 62.1704 16.653C62.1704 16.909 62.2144 17.121 62.3024 17.289C62.3984 17.449 62.5424 17.589 62.7344 17.709C62.9264 17.829 63.1704 17.933 63.4664 18.021C63.7704 18.109 64.1264 18.197 64.5344 18.285C64.9904 18.381 65.3984 18.489 65.7584 18.609C66.1264 18.729 66.4384 18.881 66.6944 19.065C66.9504 19.241 67.1464 19.457 67.2824 19.713C67.4184 19.969 67.4864 20.289 67.4864 20.673C67.4864 21.065 67.4104 21.405 67.2584 21.693C67.1064 21.981 66.8944 22.221 66.6224 22.413C66.3504 22.605 66.0264 22.749 65.6504 22.845C65.2744 22.933 64.8624 22.977 64.4144 22.977C63.0944 22.977 61.9544 22.565 60.9944 21.741L61.4144 21.057C61.5664 21.217 61.7464 21.369 61.9544 21.513C62.1704 21.657 62.4064 21.785 62.6624 21.897C62.9264 22.001 63.2064 22.085 63.5024 22.149C63.7984 22.205 64.1104 22.233 64.4384 22.233C65.1184 22.233 65.6464 22.113 66.0224 21.873C66.4064 21.625 66.5984 21.253 66.5984 20.757C66.5984 20.493 66.5424 20.273 66.4304 20.097C66.3264 19.913 66.1664 19.757 65.9504 19.629C65.7344 19.493 65.4664 19.377 65.1464 19.281C64.8264 19.185 64.4544 19.089 64.0304 18.993C63.5824 18.889 63.1904 18.781 62.8544 18.669C62.5184 18.557 62.2344 18.417 62.0024 18.249C61.7704 18.081 61.5944 17.881 61.4744 17.649C61.3624 17.409 61.3064 17.117 61.3064 16.773C61.3064 16.381 61.3784 16.033 61.5224 15.729C61.6744 15.417 61.8864 15.161 62.1584 14.961C62.4304 14.753 62.7504 14.597 63.1184 14.493C63.4864 14.381 63.8944 14.325 64.3424 14.325C64.9104 14.325 65.4144 14.413 65.8544 14.589C66.3024 14.757 66.7064 14.997 67.0664 15.309L66.6584 15.981Z" fill="white"/>
</svg>
